<mxfile host="app.diagrams.net" modified="2022-02-07T18:58:48.249Z" agent="5.0 (Windows NT 10.0; Win64; x64) AppleWebKit/537.36 (KHTML, like Gecko) Chrome/97.0.4692.99 Safari/537.36" etag="KqYN2iSu9p75X9mf9-rJ" version="16.5.3" type="github">
  <diagram id="nVuKcn5Hz3afrWmeqlu8" name="Page-1">
    <mxGraphModel dx="782" dy="434" grid="1" gridSize="10" guides="1" tooltips="1" connect="1" arrows="1" fold="1" page="1" pageScale="1" pageWidth="827" pageHeight="1169" math="0" shadow="0">
      <root>
        <mxCell id="0" />
        <mxCell id="1" parent="0" />
        <mxCell id="pOFaIlG9GEBL_NdZYyIh-18" style="edgeStyle=orthogonalEdgeStyle;rounded=0;orthogonalLoop=1;jettySize=auto;html=1;" edge="1" parent="1" source="pOFaIlG9GEBL_NdZYyIh-3" target="pOFaIlG9GEBL_NdZYyIh-15">
          <mxGeometry relative="1" as="geometry" />
        </mxCell>
        <mxCell id="pOFaIlG9GEBL_NdZYyIh-3" value="Client&lt;br&gt;" style="aspect=fixed;perimeter=ellipsePerimeter;html=1;align=center;shadow=0;dashed=0;fontColor=#4277BB;labelBackgroundColor=#ffffff;fontSize=12;spacingTop=3;image;image=img/lib/ibm/applications/microservice.svg;" vertex="1" parent="1">
          <mxGeometry x="110" y="160" width="109.6" height="80" as="geometry" />
        </mxCell>
        <mxCell id="pOFaIlG9GEBL_NdZYyIh-19" style="edgeStyle=orthogonalEdgeStyle;rounded=0;orthogonalLoop=1;jettySize=auto;html=1;entryX=0.5;entryY=0;entryDx=0;entryDy=0;entryPerimeter=0;" edge="1" parent="1" source="pOFaIlG9GEBL_NdZYyIh-5" target="pOFaIlG9GEBL_NdZYyIh-16">
          <mxGeometry relative="1" as="geometry" />
        </mxCell>
        <mxCell id="pOFaIlG9GEBL_NdZYyIh-5" value="Product&lt;br&gt;" style="aspect=fixed;perimeter=ellipsePerimeter;html=1;align=center;shadow=0;dashed=0;fontColor=#4277BB;labelBackgroundColor=#ffffff;fontSize=12;spacingTop=3;image;image=img/lib/ibm/applications/microservice.svg;" vertex="1" parent="1">
          <mxGeometry x="304" y="160" width="109.6" height="80" as="geometry" />
        </mxCell>
        <mxCell id="pOFaIlG9GEBL_NdZYyIh-20" style="edgeStyle=orthogonalEdgeStyle;rounded=0;orthogonalLoop=1;jettySize=auto;html=1;" edge="1" parent="1" source="pOFaIlG9GEBL_NdZYyIh-8" target="pOFaIlG9GEBL_NdZYyIh-17">
          <mxGeometry relative="1" as="geometry" />
        </mxCell>
        <mxCell id="pOFaIlG9GEBL_NdZYyIh-8" value="movement" style="aspect=fixed;perimeter=ellipsePerimeter;html=1;align=center;shadow=0;dashed=0;fontColor=#4277BB;labelBackgroundColor=#ffffff;fontSize=12;spacingTop=3;image;image=img/lib/ibm/applications/microservice.svg;" vertex="1" parent="1">
          <mxGeometry x="500" y="160" width="109.6" height="80" as="geometry" />
        </mxCell>
        <mxCell id="pOFaIlG9GEBL_NdZYyIh-15" value="" style="shape=cylinder3;whiteSpace=wrap;html=1;boundedLbl=1;backgroundOutline=1;size=15;" vertex="1" parent="1">
          <mxGeometry x="134.8" y="280" width="60" height="80" as="geometry" />
        </mxCell>
        <mxCell id="pOFaIlG9GEBL_NdZYyIh-16" value="" style="shape=cylinder3;whiteSpace=wrap;html=1;boundedLbl=1;backgroundOutline=1;size=15;" vertex="1" parent="1">
          <mxGeometry x="328.8" y="280" width="60" height="80" as="geometry" />
        </mxCell>
        <mxCell id="pOFaIlG9GEBL_NdZYyIh-17" value="" style="shape=cylinder3;whiteSpace=wrap;html=1;boundedLbl=1;backgroundOutline=1;size=15;" vertex="1" parent="1">
          <mxGeometry x="524.8" y="280" width="60" height="80" as="geometry" />
        </mxCell>
        <mxCell id="pOFaIlG9GEBL_NdZYyIh-21" value="config server" style="shape=image;html=1;verticalAlign=top;verticalLabelPosition=bottom;labelBackgroundColor=#ffffff;imageAspect=0;aspect=fixed;image=https://cdn2.iconfinder.com/data/icons/gnomeicontheme/48x48/apps/gnome-server-config.png" vertex="1" parent="1">
          <mxGeometry x="328.8" y="40" width="48" height="48" as="geometry" />
        </mxCell>
      </root>
    </mxGraphModel>
  </diagram>
</mxfile>
